/* XPM */
static char *cda80f482878490f95705d7c24dd8c23XRarexArds6ktGym[] = {
/* columns rows colors chars-per-pixel */
"64 64 57 1 ",
"  c #6E6C6C",
". c #716F6F",
"X c #716F70",
"o c #757374",
"O c #787677",
"+ c #797778",
"@ c #7D7B7C",
"# c #807E7F",
"$ c #83807F",
"% c #817F80",
"& c #848284",
"* c #898687",
"= c #8A8887",
"- c #878689",
"; c #888789",
": c #8C8B8D",
"> c #908E8F",
", c #93918F",
"< c #8F8E90",
"1 c #908F91",
"2 c #939295",
"3 c #989696",
"4 c #969699",
"5 c #989799",
"6 c #9B9A9D",
"7 c #A09E9F",
"8 c #9F9DA0",
"9 c #9F9EA0",
"0 c #9F9FA2",
"q c #A09FA2",
"w c #A1A0A2",
"e c #A0A0A3",
"r c #A4A2A3",
"t c #A2A1A4",
"y c #A4A2A5",
"u c #A4A3A6",
"i c #A5A3A7",
"p c #A4A4A6",
"a c #A5A4A7",
"s c #A6A4A7",
"d c #A7A6A8",
"f c #A7A7AA",
"g c #A8A6A8",
"h c #A8A8AB",
"j c #AAA9AB",
"k c #ABA9AC",
"l c #ACABAE",
"z c #ABACAE",
"x c #ADACAF",
"c c #AEADB0",
"v c #AFAFB1",
"b c #B0AFB1",
"n c #B0B0B2",
"m c #B2B2B4",
"M c #B4B3B5",
"N c #B5B4B6",
"B c #B7B6B9",
/* pixels */
"--;;:2224669wswq66q6qtylbgjjjjvxNmmvvkskxkkjdnNBMbxdskvvvjdjdkxm",
";:;:2442469wwq6667w66wxxbkgkxvnxxbnkkxvvxjkvvnmmmxxkkvnmmnlxgkvB",
";;:2565546qqw6666ystqtjmmbjxxbvxvvnkvvnvbnNnkxnNnljkkkxxnvjjldlM",
":::4565666yytq966ygsysxmmvkkxxxkkxbxvbxvnnnxdjvnnddtdjkxvksyjjxn",
";2:45966qqyqw9656wdsdsdmNbjlkkxkkvkjvvbvnvnkjkjmvjddkjnnnkddkvvN",
"&:;2566666q69665667ysddnNnklkkvxmmkjxvvkxkxvvnjnvkjkxxvnngsgklxn",
"&::1456666669666696tydsxMbklxjxmMvkkvvvjgkvknvkvnxklvlvvldjjxjjv",
";;:2566666qwq6666w99wdgvnvjkxjkvnvxxlxkskkxkvkjmvvxxvvvvvgjskgjv",
";;:2566666qwq9666ww6wjkxmkjkdjxvvxxlxxljkjkkvsxmnxxvvvmnnvsdljjb",
":::2566656qqqt669yw9wddlbjgjjjvxvvxlbnxkkjgkvssljjjdkkxvvvdwjjkn",
":1:1466656qqqq66qyt9tjsxbkggjxxnxvxxbvzjjjdjxjjdysjdjdkkxxgqkddx",
":1:<266666wttq69qyw6ykdlbvljkjvnxnvnnxjjjjjsldgklxjlxlxkdjy6sysd",
":112266665q6w9966tt6yjglkvkxlkvvxxxvnxjkjdjvby9ggstyjsjjlxyqy6qd",
"<125669666qwww666qt6slylxlxlxxbxkkxnmvxlxddxlwttggsqjxvlxjtjw69d",
":24669t6666wtqq666t9skdklkjkxxbkvmnvmnxxxddgjsjdgdgslvnlkjydy6qq",
";22696q6669ytwq666w6ykdxkjjlklbxvnmnnvkdjwtyssdsjdjjgkvlslskd9yk",
":2269qtqq9tssty66qw6wlslkjkxkxnmbvbmnvkt9ssjjsjjjkklljvlggggdsyx",
";226qqttw99yyys67ww6qjglldkklvmmbxvnnvxtqdsjxdkkxkjdggjjswqtysyj",
"::26666q966ywsswyyq6wddxxsskvbmnnkxmnvkqwdytsjkxdjdwtsww6w66tqqd",
"2226666q699ywsjdwq65qssgxjykxvvxkdvvxxdqydkjjkkkdsststs6966tdtys",
":22666qwqttq9wsw9q656wydjgjjjjjllllvxkswjxvvjkkjjwtsdtsy6ryyt6qs",
":124446666q666965665556qwkjggwqklkytwsdknnnvnklxlvjgjdjsddtdddjy",
"1:2212254652244224542446qtt9966gkxxdswwvvvvvksytqw9tsdyjdswq69gg",
"1:1111::221442542244266qggq6446ylnjlkjgxvvskq6ys69tsdtsvxdtwddvg",
"42541:12225644664642446wsdsgsklvnmdkbnvbvvdxswt66wsttdtkkts9ssxk",
"62521:1652244255442<246jjyyvdvkkvbkxxvvmkvvkkxnt6tdtkxkxd6tkgssj",
"92421<2554466465654:255wdtwkvbBmkkxvvxvvvvkvjsvswkgkkvjd969tgdkj",
"62542225225664546544545gdjknkxvvkkkvnkkkkkgkvgq96tdgjgtt646tdgkd",
"42644<2421464426646545699dvmvkklkvkxxvjtdgddkjtwtdjjdty9444dgkjt",
"<15542464246646645444469tjdvkvvlkktvxjdtdddjvxksskkj9t9t95tkktdt",
";;255225222245665444445yq9dddkksddddkdjdyjjkvkkdjdkdwwwttttkkytt",
";:::>1:::::<12562465666y949ttskdtytdkkdttdkkkdddtjk99969wt9ttttt",
"&;24<<42221554662564564666wsytjgsdtykgt6dggdgsdsdkkstwstyd6tdsst",
";1652;5566221<562664462696ttttdjkttwdd99ttttddjjlxdqttkddt6ttwyt",
";254<:4664&@::454565664699ttwwytdtdwdttttdyydssgdd96tdjt966999wt",
"&:14115652;&2:2446q44649ssddddttjdswdw99ddtttdsdt9wwsklt93449999",
";22225664:&@;14146665629kjdstdsdddswytdtdttwtsst999ydddt95459qt9",
":12566662:+&226544654526sydwsddtttq9ttdtts6wttt6ws66wtddt94q6669",
"244465522-O&<469646452<6ddd99t99tw6wttdqttt9tswttd6666tw66662249",
"4666646451&2126664442<26tts9tq99dwt9wttttw9wsdtjjst9696666542<<2",
"4465516644&61<66621<::26tyw6w6t9ddd9tt999ttdsdsgdkjks9tw99244466",
"<;14515652&1:;24<::-:;2wdsy96t6tttyt99666wddsddddttsdsttdy96qytt",
";::4::5622;2;;441:-&:;:9sy96699d9dd666669ttsdgdssst9wtttdy9yydkt",
"21<42122:2;%&:42:;&@%&&6964666466q9999666tdttssw9ww96699996999t4",
"22241;1-;:&&*24::%@@@&:4664469269tw9t99666w69sssw99994t9656666t6",
":1:;::2::;&2:12;;@@%@&;t9<499649qw96669666666t66t9tdw9t6469546t6",
":<:4:11:::+:::;%@@@@@;2696699t9t699w9696569t6666ttwt999526554699",
";<12:::&&@@;&&&@+@@@@@26t9wqtdqy999ts9696996666ttdsdt96625699994",
"-:<:;&;;@#&&&#%&@@@@@@;66w499ytdtttdt96669646666tdddt66666646tt9",
"&<12;%&;%&:2;%%&+@@@@@&226<6qtyt9ds99wt45664429ssdgjd996699249t6",
"&;:;&+@&@&262@&@oO+@@%:22629w9tstwsw699442222499tkkkd96wqtq42999",
"+&&;&&&:;:664&;&@++@+;:44625699t96dw426224224466sddjkq69wt664696",
"o@&&&-::<<2:2<6&oO+@+;&<<2246t9wt9ws444::22<22466wwwtq66w9466994",
"O@#%+&<:;;:::14:oOO+&<:44422466t6wt6442:422:<:<642246966964666t6",
"o+@@+&:2:::2-442+.oO-::26452544s9w664<42622:;::<22<<:44566566566",
"ooO+@;2444252426@ooo-<;2<266622626622<2:222<::<::42:;22<46446442",
"+@O+@&24<2466214%OOO&<-:6666462624622242<1<<::2<464222:&4622424:",
"@@@@&&:6<6666655:@OO&:-:69w66969666442:224222244444:542;;:222<2:",
"@@%@$24662569566;oXo-2<266w66666stt66424224252664496622;:1:;::1;",
"@+@&*,26422462;&%oo+&<<46ww96q99sw966666246w455qq4966w62:;2:2241",
"O#+##;>11:;;61&:@XOo@:-46996166w966q9462:1:29656yq665666:;:1:16:",
"o@oo#:>*:=@;5;&2;Ooo%::29964<4466456646::1;2666qds556664222::161",
"OOOOO#&=>:&&5:&;@O O@&;46644254454226444;26696wytt66qw64446;:464",
"o.oo+@+@&&%#1:&@@O OO--666d4499642<46262:<9tw6qytt666626211:2462"
};
