/* XPM */
static char *a7b1f856394b4d97ba759a63ba6957e0FuPnVXWSC0QVUdUA[] = {
/* columns rows colors chars-per-pixel */
"64 64 178 2 ",
"   c #744E2B",
".  c #6B4E31",
"X  c #64513E",
"o  c #795A3A",
"O  c #675440",
"+  c #6B5742",
"@  c #725C46",
"#  c #735F48",
"$  c #7B6345",
"%  c #75624C",
"&  c #7B654B",
"*  c #76684F",
"=  c #7F684D",
"-  c #7F6A51",
";  c #835F38",
":  c #85623D",
">  c #8E6A3F",
",  c #826444",
"<  c #8A6945",
"1  c #83664B",
"2  c #886748",
"3  c #846A4C",
"4  c #8B6D4D",
"5  c #916F45",
"6  c #8D704D",
"7  c #957447",
"8  c #93734D",
"9  c #98754E",
"0  c #856D53",
"q  c #8A6F52",
"w  c #826F58",
"e  c #867154",
"r  c #8C7354",
"t  c #877259",
"y  c #8C7559",
"u  c #8D795C",
"i  c #937554",
"p  c #997555",
"a  c #967956",
"s  c #9C7B55",
"d  c #93775A",
"f  c #947A5C",
"g  c #9B7D5B",
"h  c #AC7942",
"j  c #AE7D49",
"k  c #A27E56",
"l  c #A17D5A",
"z  c #8F7961",
"x  c #947E61",
"c  c #9A7E61",
"v  c #A17F62",
"b  c #9D805D",
"n  c #B4844E",
"m  c #BA874F",
"M  c #BC894E",
"N  c #A58257",
"B  c #AA8355",
"V  c #A4835C",
"C  c #AA865C",
"Z  c #A5885D",
"A  c #AD895D",
"S  c #B38856",
"D  c #BB8C56",
"F  c #B38B5D",
"G  c #BC8F5A",
"H  c #B7905F",
"J  c #BD925D",
"K  c #968163",
"L  c #9D8364",
"P  c #9C856B",
"I  c #A38563",
"U  c #AA8662",
"Y  c #A58966",
"T  c #AC8B64",
"R  c #A18769",
"E  c #A48A6A",
"W  c #AC8E6B",
"Q  c #B38D63",
"!  c #B98E62",
"~  c #B18E6A",
"^  c #A7906D",
"/  c #AE916D",
"(  c #B59165",
")  c #BC9364",
"_  c #B4936B",
"`  c #BB966B",
"'  c #BD996D",
"]  c #A58C71",
"[  c #A98F72",
"{  c #A69271",
"}  c #AD9372",
"|  c #AD9379",
" . c #B39673",
".. c #B89771",
"X. c #B69974",
"o. c #BC9B73",
"O. c #B39779",
"+. c #B59A7B",
"@. c #BB9D7A",
"#. c #BEA17D",
"$. c #C08C53",
"%. c #C39156",
"&. c #C4945C",
"*. c #C9965B",
"=. c #C9995E",
"-. c #C29664",
";. c #C99760",
":. c #C59965",
">. c #CB9C64",
",. c #C29769",
"<. c #C39C6C",
"1. c #CA9E6A",
"2. c #D09F65",
"3. c #C29E73",
"4. c #C99F71",
"5. c #C19F79",
"6. c #CDA067",
"7. c #C7A16F",
"8. c #CCA16D",
"9. c #D1A066",
"0. c #D2A56D",
"q. c #C5A175",
"w. c #CBA474",
"e. c #CEA977",
"r. c #C4A37B",
"t. c #CAA67A",
"y. c #CDA97C",
"u. c #D1A673",
"i. c #D3A975",
"p. c #D1A876",
"a. c #D5AB76",
"s. c #D8AB75",
"d. c #D1A77A",
"f. c #D5AD79",
"g. c #D2AB7C",
"h. c #D0AB7E",
"j. c #D2AD7D",
"k. c #DAAE7A",
"l. c #D5B07E",
"z. c #D9B17D",
"x. c #B69C80",
"c. c #BA9E80",
"v. c #BEA282",
"b. c #B9A788",
"n. c #C3A581",
"m. c #C3A583",
"M. c #C9A781",
"N. c #C6A885",
"B. c #CAAA82",
"V. c #CCAB83",
"C. c #C5AA8A",
"Z. c #CCAD8A",
"A. c #D0AB80",
"S. c #D3AF81",
"D. c #D3AF83",
"F. c #D3AF84",
"G. c #CFB087",
"H. c #CEB18D",
"J. c #D4B183",
"K. c #D4B185",
"L. c #D5B086",
"P. c #D7B487",
"I. c #D9B283",
"U. c #DBB482",
"Y. c #D5B288",
"T. c #D4B38B",
"R. c #D6B48A",
"E. c #D9B789",
"W. c #D9B68C",
"Q. c #DBB98D",
"!. c #CEB494",
"~. c #D4B691",
"^. c #D9B790",
"/. c #D7B893",
"(. c #DAB991",
"). c #D0B698",
"_. c #DABE9B",
"`. c #DDC09D",
/* pixels */
"n.r.@.X. ...T T Q -.-.:.-.-.-.-.) -.-.-.-.) ) ) Q Q C L 3.q.t.t.w.a.f.f.j.z.l.e.w.7.q.<.q.' e z.U.U.Q.T.R.R.Q.L.D.L.^.A.D.J.D.B.",
"r.B.r.r.r.r./ U Q ,.:.1.8.:.1.:.-.-.-.) ) ) F F F A N R q.4.t.w.w.e.J.L.y.j.l.w.t.t.a.p.t.q.y (.Z.L.y.t.W.J.T.L.R.F.T.L.R.D.u.B.",
"r.r.X.r.r.B.T T Q <.<.1.w.w.:.) ! Q ) ) ) Q Q A A C N L r.t.w.y.J.r.D.P.W.l.p.j.j.p.f.g.g.` r t.t.u.g.g.y.o.D.D.g.t.D.D.t.t.t.B.",
"@.r.r.r.n.r.W C U ` <.1.4.4.3.` ) Q ) ` ` Q Q Q T T k P #.o.q.y.4.4.t.t.j.t.w.u.w.w.7.<.<.Q r y.t.t.7.<.t.V.y.t.q.t.y.w.q.q.t.r.",
"W } } O.+. ._ N 4 A T ( T T T U T T U T T V g a a k s t Y T ( ` Q ( _ Q ( _ _ _ ( _ _ _ Q H $ T _  ._ Q T T / .._ / _ .._ / _ ' ",
"X. .T W W R Q B , 2 4 4 4 4 i 4 4 q 8 s k C C N N C C U a a a g g g g g V g V g V V V g V T Y R I V T V V U g I R L g I R L b o.",
"G J &.@.X.X._ ......X...X.' o._ ` o.` C F Q ) Q A V b T _ ' _ W / Q b E Y R R Y I V C T _ T A A F J o.X.X._ o.' ' ` ` ' ' ` X.v.",
"*.&.&.+.Z.T.L.T.W.L.R.W.T.t.t.q.3.t.t.4 ) F F A T Q T ( _ _  ...' ) q y.t.t.w.q.<.-.-.1.w.7.,.:.<.<.f X.t.t.w.q.w.e.w.w.w.t.t._.",
"9.>.:.o.E.Q.(.(.(.W.(.W.W.L.B.Z.Z.T.y.6 ` _ .. . .+. . . . . .X.' F 3 <.w.:.:.-.7.e.w.q.t.r.t.t.y.r.f @.q.w.w.w.w.w.w.u.w.w.t.`.",
"e.t.t.+.(.(.W.T./.T.T./.~.Z.H.~.Z.H.r.r #.@.@.+.+.+.+.v.n.v.+.N.B.' , G J -.&.:.w.w.w.w.<.<.q.w.w.q.i o.w.w.u.w.w.w.u.w.w.<.t._.",
"t.q.3.] Z.Z.Z.Z.Z.Z.Z.Z.Z.n.C.Z.Z.Z...x v.x.x.x.+.@. .x.x.+.x.N.N._ , G G :.1.t.w.8.>.1.>.&.6.0.8.1.a ` 8.7.1.:.1.8.:.1.1.w.w.!.",
"D.t.` ] C.C.C.N.C.C.C.Z.T.H.H.~.H.Z.@.t  .}  .+.@.+.+.+. .O.+.r.@.T 3 w.t.D.L.V.D.f.8.:.&.&.:.1.w.7.V  .t.t.y.L.L.L.w.w.g.D.Z.).",
"B.q.` ] Z.H.H.N.Z.H.Z.Z.H.H.H.Z.N.N...u v.@.+.X.X.O.+.O. .+.+.n.+.~ w N.N.Z.Z.H.Z.r.M.#.r.t.r.r.Z.r.I } r.H.T.T.r.q.y.w.q.t.B.!.",
"y.o.' x +.v.x.+.x.v.x.+.+.+.+.+.O.E U 0 O. ._ W Y P ] O.[ | | | ] Y & @.#.n.C.C.n.#.v.@.@.X./ X.@...L ] +.v.v.O.} +.#... .+.+.C.",
"g W ' L g f 0 u u x t f c c g c c } o.V 1 1 3 3 3 3 $ - 0 q u L R _ W W  . .E E ] R P R R I g g I 3...c f r f f L f u c L f u P ",
"q.o._ _ _ o.t.Q <.<.,.<.4.<.w.<.<.4.` <.) ) ) ) Q <.( Y W W / W Y L Y / _ _ _ _ _ _ W U T ,._ .. .W T W / } } } W W W / W W / n.",
"/.T.r.B.t.q.w.1 w.t.4.r.t.r.r.t.r.y.t.y.r.r.M.r.+.o.A L @.X.r.r.5.o.r.o.o.r.X.X.o.` _ _ Q <.w @.@.r.r.@. .+.@.@.r.r.@.o.r.q.r.Z.",
"T.Z.t.V.B.r.t.1 g.I.d.g.d.4.d.g.g.g.g.g.d.g.d.t.q.4.C c +.+.@.5.t.r.t.3.o.r.o.` ' ` _ ( Q <.w r.@.r.r.q.3.<.,.-.` <.<.) ` r.r.Z.",
"B.y.y.D.L.T.y.1 d.g.g.y.t.5.y.g.A.y.y.g.y.y.B.t.t.3.N c o.@.o.o.q.r.q.3.3.3.3.o.' ) Q ( Q ,.3 <.) -.&.&.&.&.%.D J J &.%.&.,.4.y.",
"p.t.g.g.y.y.r.3 t.g.g.t.g.t.t.B.Z.Z.B.F.M.r.M.r.@.o.B V o.@.X.o.o.q.o.3.' ` X.` _ ( ( _ _ ,., >.J :.-.&.&.&.%.%.%.&.:.-.-.:.w.V.",
"e.g.g.u.g.F.r.3 t.y.y.y.B.Z.r.M.B.B.r.M.M.B.M.n.r.@.k b X.o.@.o.o.o.o._ ' ` ` _ _ ( ` ` _ ) o n n D D D J -.<.w.q.q.q.r.t.q.y.H.",
"w.w.t.T./.T.X.1 u.4.w.d.u.u.w.u.u.t.u.w.d.d.t.4.3.' k f  . .+.o.X.X.X.` _ _ _ _ Q T Q Q Q ) - t.y.t.r.r.t.r.r.r.M.r.#.r.M.r.r.H.",
"q.e.` q.N.C._ 1 t.d.w.d.g.t.w.d.t.y.y.B.t.n.r.c.@.} s % Y P L ..W W I _ ~ W Y T T T U T W ) % n.n.M.n.n.n.n.@.@.+.+.@.@.+.@.#.~.",
"4 6 8 r d c o.g 3 2 2 2 2 2 4 q i i r r u q 3 3 1 Q A g 1 r b i g I U a g a i 4 3 3 3 3 a _ @.u r r f f q i i r i q r i i 4 f M.",
"X.C F +.+.X.}  .+. .@.X. .o. . .} } ' 3._ T T V T I L Y W Y / W _ 3.W  .[ } W Y R P P E Y L R Y Y 5._ W Y T N B A / } Q W / } O.",
"J S J [ n.v.c.n.v.v.v.n.n.n.N.n.v.@.q.f _ _ / _ _ / /  .o. ...o.q.w.z v.#.M.n.@.r.#.@.@.r.#.r.r.@.V.I o.3.<.) ` ` ' ) ,.` X.W v.",
"7.` &.E n.N.N.N.v.n.C.Z.Z.H.N.v.n.#.q.f W /  ._ / o.....X.o.X.3.w.w.x Z.T.W.T.B.B.r.r.q.3.r.B.B.r.V.b o.t.w.1.w.,.<.q.w.,._ W n.",
"t.X.q. .D.F.Z.Z.Z.C.Z.Z.Z.Z.Z.M.Z.Z.r.f _ _ ...._ ../  .o.@.@.r.w.t.L B.T.Z.L.D.r.t.t.o.r.r.t.M.r.y.g 3.w.8.t.t.o.' r.5.` W [ n.",
"r...3.T 7.w.w.f.j.L.T.F.A.A.g.w.<.g.3.u _ _ / / W _ _ ` o.o.o.o.q.w.f y.l.f.z.g.g.g.<.w.g.g.t.g.j.D.f q.t.y.3. .W T _ _ T T W r.",
"r.o.r.} Z.V.y.y.J.I.D.W.R.T.Z.t.g.g.<.4 ` _ Q W T T Q ( ` ` ` ` ,.,.L V.B.y.j.j.t.D.j.I.J.g.z.s.s.a.f r.t.w._ _ T T T T T T T r.",
"X._ ..R N.N.v.@.n.@.n.N.n.v.N.#.B.M.` 4 ) ` ` ` Q Q ( ) ) ` ) ` o.) u Z.Z.T.Z.T.B.Z.Z.V.Z.Z.y.g.f.u.f ' <.7.' _ ( F _ _ Q Q T 3.",
"r. ._ L @.r.@.@.@.@.5.@.@.@.@.@.v.O.~ , V o.+.+.+.W I ) ' W f +. .` = ..@.M.r.r.B.M.Z.Z.Z.Z.W.F.j.w.a <.F q.@.+.+.X. .O.+.X. .c.",
"= r 3.f 1 3 , 1 r 0 1 1 0 0 r $ & = ' ) f r y r e b 6 $ e / ( $ f ' Y 6 4 r r r r 3 e e e r u u u 3.Q Z ' a r y r L I r y Y Y #.",
"T.B.B.B.D.L.` s g.7.1.&.%.J w.q.y.t.7.w.w.q.q.3.T V N f W _ ` 3.` ' ` <.3.4.' ' 3.' _ Q C Q 9 -.J J ) G G -.) ` ) S ) ) F F F @.",
"L.y.D.D.q.y._ , p.f.z.a.p.;.>.p.J.7.1.-.-.1.1.>.<.) C L o.o.o.3.3.3.3.' 3.w.q.4.q.q.t.<.q.( ; %.M m D D j >.1.>.1.8.>.:.7.w.w.r.",
"0.k.p.z.a.w.( 2 =.9.g.w.p.=.=.>.>.;.%.p.p.e.j.w.w.` B c ..' ' 3.r.r.r.3.q.t.t.q.q.t.3.o.' T   &.8.8.8.8.1.8.0.u.1.0.0.w.e.D.q.r.",
"f.u.f.k.a.a.) 2 0.>.;.u.p.1.1.>.a.f.u.p.8.w.,.:.<.) F L o.X.X.r.r.r.r.r.q.y.r.t.V.r.r.o.o.T : >.>.=.&.=.>.>.a.u.>.0.u.8.g.8.1.w.",
"p.u.g.f.a.u.F 3 u.8.a.p.a.k.u.>.0.0.0.*.$.;.u.7.,.F F R o.X.r.r.r.r.t.t.t.r.` 3.r...o.X.o.N : $.M %.&.>.;.h 0.s.>.0.a.p.0.8.1.<.",
"j.E.P.J.I.I.' r 9.=.0.0.u.j.g.8.z.J.D.u.>.0.D.D.t.` F L #.5.r.t.r.t.q.o.X.o.o.r.r.@.......T 4 u.&.8.g.0.0.;.;.;.%.&.2.*.=.$.8.t.",
"A.D.F.F.L.L. .d U.s.g.j.g.D.W.T.L.T.L.T.P.J.J.j.w.<.A L @.o.r.r.@.@.r.o.@.@.X.o.r...X.o.X.V i 8.8.1.&.&.&.*.>.u.=.;.9.p.&.=.w.@.",
"a a a a a g C = f f f x u u u u r r r r i 8 4 1 3 C C % * - u r y u y y y y u t e y e e u g . > 5 7 5 7 s b ^ { ^ E { { ^ E E o.",
"' ) ! ! C F T _ q.3.3.3.q.q.3.3.,.,.3.w.q.w.t.w.<.A C ' _ @...o..._ ~ W Y c f g c g g v I g s p l p l s l g i i 4 4 3 3 4 1 p #.",
"_ T ` I _ _ _ _ W _ _ T W V V U U T T s F F F C N V g I I Y T ..X._ c R W Y W W T W / _ _ W _ ..X.X.R o.3.<.,.-.-.) ) ) ) ) C / ",
"_ _ ` d o.X._ ` ` ` ' ` o.o.o.3.o.o.Q 4 >.:.,.:.` ) A ' 3.3.' 3.q.X.# r.3.r.t.t.t.t.t.t.t.t.t.y.V.D.0 3.g.y.q.w.t.t.q.w.w.p.q.r.",
"o._ _ f r.q.q.q.t.y.D.D.D.Z.D.T.R.L.<.< ;.-.o.) ,.` ' <.<.<.<.<.,.) @ y.y.y.t.t.e.y.t.y.V.y.r.t.t.3.3 j.W.p.g.g.U.g.g.g.z.s.g.W.",
"q.' ` g t.t.q.t.D.L.R.L.y.y.B.V.L.V.) 8 g.t.r.o.t.r.q.r.w.:.1.0.8.-.@ t.q.q.w.q.q.t.y.t.t.r.q.q.t.t.0 w.w.g.t.j.D.g.t.D.D.a.y./.",
"3.` _ g t.t.t.q.y.L.F.D.B.y.V.L.D.q.F r B.r.@.+.o.o.o.o.r.B.V.J.I.7.@ q.q.q.t.r.t.r.t.r.@. ...o.q.' 3 w.w.1.<.w.8.7.<.w.8.a.y./.",
"q._ T f r.r.t.t.t.L.L.V.t.B.V.V.V.r.T i D.B.q.' ` 3.3.o.r.r.t.e.w.T + t.@.q.#.q.3.o.3._ .. .X.o.3.T 3 :.;.>.>.8.>.>.8.8.1.1.t.T.",
"_ T V g r.r.t.r.D.L.V.Z.Z.Z.L.L.G.r.V 4 p.1.q.<.` 3.<.<.3.q.t.t.t.T O r...q.3.o.q.q.3.3.X.X._ o.3.U 3 ,.>.;.:.<.<.1.:.7.w.w.y./.",
"= 4 b & u f f f f g f u f K c x f f g r K P L x y 3 $ $ 3 6 4 6 3 N X K K f K x f f f f u y r u e g # L L Y ^ } E } } ^ E } +.b.",
"Q ` T Q U ~ ~ T I W T U U g I g k C ( ` N F ` <.` ` ( ` -.-.-.,.) F I q d g g g I g g g g f T T T _ L g W }  .I g a f g a d f P ",
"` X.Q ` X.Q 3.' Q _ Q Q Q Q F Q F F C A F Q F ) F Q ) _ A ) 1.:.,._ ` ` ( ' ' ` ` o.' / _ o.E }  .T _ ' o.<.4.' 3.' 3.` 3.3.y.Z.",
"o.o._ o.o.o._ Q U ! ) Q F ) ) ,.) ) ) ) ) ) Q Q Q F C V <.,.<.1.w.w.7.g.g.w.t.w.p.t.t.t.t.q.r L.T.t.t.e.7.:.-.t.D.V.q.V.D.L.j.L.",
"r.X...o.o.3._ T ( ) -.,.-.) ) ) ) -.-.:.,.` ) ) Q Q A b 4.q.w.w.u.u.u.p.e.g.j.p.u.8.p.q.q.` 0 j.f.>.J.W.T.e.w.L.T.L.L.P.L.Q.J.~.",
"n.r.#... ._ T T Q ) :.:.:.:.,.-.) ) ) -.-.-.) ! Q Q C L 3.4.w.w.w.a.f.f.J.l.l.g.w.7.w.<.r.` 0 z.U.J.(.T.L.P.W.L.T.W.W.R.D.L.j.B.",
"r.B.r.r.r.r.T U Q ,.:.1.8.:.1.:.:.-.-.) ) ) F F F A V R q.q.w.e.t.g.L.D.y.l.f.q.t.w.p.e.t.q.y (.V.T.B.t.W.D.y.D.R.L.T.T.L.D.p.B.",
"r.r...r.r.B.T T Q ,.:.1.w.w.,.) ) ! ) ) ) Q Q F A A N R r.r.t.y.D.r.D.J.P.U.p.g.j.p.g.g.e.` r t.8.t.t.D.y.<.j.D.t.t.D.D.t.e.e.y.",
"@.r.r.M.n.n.W T C ` <.<.4.<.3.` ) ( ` ` ` Q Q Q T T N P v.o.q.e.4.4.w.e.j.w.u.p.w.w.7.<.<.( t B.t.w.w.<.t.V.e.<.e.V.g.w.q.q.r.y.",
"@.n.n.n.C.n._ N i Q ( ` Q Q Q Q _ _ _ ` _ U a g N N s u .._ ' <.) <.q.<.q.q.q.q.q.q.t.q.` F $ o.r.r.3.' ) ' o.X.o.X.o.o.o.X.' o.",
"R R g g f f Q C , 2 i 6 i i i 4 i i 4 8 8 8 s 9 s A N g f a a g g g g g g a a r a i a a g T R g f a g i a g a g g L g f g c g o.",
"J &.&.o.r.r...o.o.o.@.@.o.o.' o.o.3.' C F Q ) Q F C b T T _ Q T W Q L E R R Y R Y V A T T T F H J J o.o.o.3.q.q.<.4.<.o.<.<.3.n.",
"*.&.&.+.F.T.T.T.W.T.R.R.T.t.t.q.q.y.w.r ) F F F T Q T ( ( _ _ ..o.) 0 y.t.w.w.q.<.-.&.<.w.q.:.:.<.,.f o.y.t.w.4.w.t.t.w.u.g.t._.",
"9.>.:.o.Q.W.Q.(.(.W.(.W.W.F.B.Z.Z.T.y.6 ) _ .. . .X. ... . .X.o.` F 3 3.<.<.:.:.<.e.w.q.t.t.t.q.y.q.f o.q.t.t.t.w.t.p.t.w.4.t._.",
"t.w.w.+.W.W.W.W./.T.T././.Z.Z.T.Z.H.r.r #.@.@.+.O. .O.v.n.x.x.N.B.` , D G :.J :.w.q.t.w.7.<.<.w.w.q.i o.w.w.u.w.<.w.u.w.4.<.t._."
};
