/* XPM */
static char *_373e3c9d4a141f683548965cdc8b4c5CKRdqUjhMZ9jQtQf[] = {
/* columns rows colors chars-per-pixel */
"64 64 66 1 ",
"  c #231E1E",
". c #252223",
"X c #262324",
"o c #262425",
"O c #282324",
"+ c #2A2526",
"@ c #2C2627",
"# c #2B2728",
"$ c #282829",
"% c #2F2A2B",
"& c #302B2D",
"* c #312D2E",
"= c #342E2F",
"- c #332F31",
"; c #352F31",
": c #343033",
"> c #363134",
", c #393335",
"< c #393537",
"1 c #3A373A",
"2 c #3C3739",
"3 c #3D393B",
"4 c #3E3A3D",
"5 c #3F3C3E",
"6 c #413B3D",
"7 c #413D3F",
"8 c #3F3C41",
"9 c #413D40",
"0 c #453F42",
"q c #413F44",
"w c #464043",
"e c #464144",
"r c #484346",
"t c #4A4447",
"y c #4B474A",
"u c #4C474A",
"i c #4B484B",
"p c #4C484B",
"a c #4F4B4F",
"s c #504A4F",
"d c #4F4C50",
"f c #504B50",
"g c #534D52",
"h c #535054",
"j c #565357",
"k c #575358",
"l c #575459",
"z c #59555A",
"x c #5B595E",
"c c #5D585E",
"v c #5E5B60",
"b c #5F5C61",
"n c #605E63",
"m c #625F65",
"M c #636167",
"N c #656369",
"B c #66646A",
"V c #67656C",
"C c #69676D",
"Z c #6B6970",
"A c #6E6C73",
"S c #716F77",
"D c #727078",
"F c #74737A",
"G c #75747B",
"H c #78777F",
/* pixels */
"HHHHHHHHHHaHHHHHHHHHbgccccccccc6ccccccccccaHHHHHHHHHMNHHHHHHHHHa",
"HHHHHHHHHHaHHHHHHHHHbgccccccccc6ccccccccccaHHHHHHHHHMNHHHHHHHHHa",
"HHHHHHHHHHaHHHHHHHHHbgccccccccc6ccccccccccaHHHHHHHHHMNHHHHHHHHHa",
"HHHHHHHHHHaHHHHHHHHHbgccccccccc6ccccccccccaHHHHHHHHHMNHHHHHHHHHa",
"CCCCCCCCCCeCCCCCCCCCjtggggggggg<ggggggggggeCCCCCCCCClzCCCCCCCCCe",
"vvvvzevvvvvvvvveXooooooooo*vvvvvvvvvx9vvvvvvvvvtkvvvvvvvvv:ooooo",
"HHHHSjHHHHHHHHHj$$$$$$$$$$<HHHHHHHHHGgHHHHHHHHHzAHHHHHHHHH5$$$$$",
"HHHHSjHHHHHHHHHj$$$$$$$$$$<HHHHHHHHHGgHHHHHHHHHzAHHHHHHHHH5$$$$$",
"HHHHSjHHHHHHHHHj$$$$$$$$$$<HHHHHHHHHGgHHHHHHHHHzAHHHHHHHHH5$$$$$",
"HHHHSjHHHHHHHHHj$$$$$$$$$$<HHHHHHHHHGgHHHHHHHHHzAHHHHHHHHH5$$$$$",
"aaaaaeaaaa<4444>%%%%+<44447aaaa7eeeee3eeee7aaaataaaat14444*%%%%+",
"HHHHHHHHHH-qqqqqqqqq<CHHHHHHHHHyccccccccccaHHHHHHHHHM1qqqqqqqqq>",
"HHHHHHHHHH-qqqqqqqqq<CHHHHHHHHHyccccccccccaHHHHHHHHHM1qqqqqqqqq>",
"HHHHHHHHHH-qqqqqqqqq<CHHHHHHHHHyccccccccccaHHHHHHHHHM1qqqqqqqqq>",
"HHHHHHHHHH-qqqqqqqqq<CHHHHHHHHHyccccccccccaHHHHHHHHHM1qqqqqqqqq>",
"jjjjjjjjjj@:::::::::%ajjjjjjjjj<wwwwwwwwww2jjjjjjjjjy&:::::::::%",
"$$$$+gSSSSSSSSSgZSSSSSSSSSySSSSSSSSSA.$$$$$$$$$.VSSSSSSSSSiSSSSS",
"$$$$$jHHHHHHHHHjDHHHHHHHHHaHHHHHHHHHG.$$$$$$$$$XAHHHHHHHHHdHHHHH",
"$$$$$jHHHHHHHHHjDHHHHHHHHHaHHHHHHHHHG.$$$$$$$$$XAHHHHHHHHHdHHHHH",
"$$$$$jHHHHHHHHHjDHHHHHHHHHaHHHHHHHHHG.$$$$$$$$$XAHHHHHHHHHdHHHHH",
"$$$$$jHHHHHHHHHjDHHHHHHHHHaHHHHHHHHHG.$$$$$$$$$XAHHHHHHHHHdHHHHH",
"aaaaaaaaaa,aaaaaaaaa7eaaaaaaaaa;**********:aaaaaaaaa9waaaaaaaaa<",
"HHHHHHHHHHaHHHHHHHHHbCHHHHHHHHHeqqqqqqqqqqyHHHHHHHHHMNHHHHHHHHHd",
"HHHHHHHHHHaHHHHHHHHHbCHHHHHHHHHeqqqqqqqqqqyHHHHHHHHHMNHHHHHHHHHd",
"HHHHHHHHHHaHHHHHHHHHbCHHHHHHHHHeqqqqqqqqqqyHHHHHHHHHMNHHHHHHHHHd",
"HHHHHHHHHHaHHHHHHHHHbCHHHHHHHHHeqqqqqqqqqqyHHHHHHHHHMNHHHHHHHHHd",
"aaaaaryyyy<yyyyeeeee39eeeeeaaaa21111<;11113aaaayyyyy99yyyyeeeee>",
"HHHHSwccccccccc08qqqqqqqqq4HHHHHHHHHGgHHHHHHHHHzjccccccccc1qqqqq",
"HHHHSwccccccccc08qqqqqqqqq4HHHHHHHHHGgHHHHHHHHHzjccccccccc1qqqqq",
"HHHHSwccccccccc08qqqqqqqqq4HHHHHHHHHGgHHHHHHHHHzjccccccccc1qqqqq",
"HHHHSwccccccccc08qqqqqqqqq4HHHHHHHHHGgHHHHHHHHHzjccccccccc1qqqqq",
"NNNNb2sssssssss21111111111<NNNNNNNNNMeNNNNNNNNNaysssssssss;11111",
"mmmmmmmmmm9mmmmmmmmmawaaaaaaaaa,aaaaaaaaaa7mmmmmmmmmghmmmmmmmmm7",
"HHHHHHHHHHaHHHHHHHHHbgccccccccc6ccccccccccaHHHHHHHHHMNHHHHHHHHHa",
"HHHHHHHHHHaHHHHHHHHHbgccccccccc6ccccccccccaHHHHHHHHHMNHHHHHHHHHa",
"HHHHHHHHHHaHHHHHHHHHbgccccccccc6ccccccccccaHHHHHHHHHMNHHHHHHHHHa",
"HHHHHHHHHHaHHHHHHHHHbgccccccccc6ccccccccccaHHHHHHHHHMNHHHHHHHHHa",
"aaaaa9aaaaeaaaa9----%%%%%%=yyyyeyyyyy2yyyyeaaaa0yaaayyaaaa<----+",
"HHHHSjHHHHHHHHHj$$$$$$$$$$<HHHHHHHHHGgHHHHHHHHHzAHHHHHHHHH5$$$$$",
"HHHHSjHHHHHHHHHj$$$$$$$$$$<HHHHHHHHHGgHHHHHHHHHzAHHHHHHHHH5$$$$$",
"HHHHSjHHHHHHHHHj$$$$$$$$$$<HHHHHHHHHGgHHHHHHHHHzAHHHHHHHHH5$$$$$",
"HHHHSjHHHHHHHHHj$$$$$$$$$$<HHHHHHHHHGgHHHHHHHHHzAHHHHHHHHH5$$$$$",
"gggga3ggggggggg3..........%gggggggggg2ggggggggg7pggggggggg*.....",
"GGGGGGGGGG-999999999>BGGGGGGGGGyzzzzzzzzzzyGGGGGGGGGn1999999999>",
"HHHHHHHHHH-qqqqqqqqq<CHHHHHHHHHuccccccccccaHHHHHHHHHM1qqqqqqqqq>",
"HHHHHHHHHH-qqqqqqqqq<CHHHHHHHHHuccccccccccaHHHHHHHHHM1qqqqqqqqq>",
"HHHHHHHHHH-qqqqqqqqq<CHHHHHHHHHuccccccccccaHHHHHHHHHM1qqqqqqqqq>",
"FFFFFFFFFF-888888888>NFFFFFFFFFyzzzzzzzzzzyFFFFFFFFFn1888888888>",
".....4ggggggggg4aggggggggg1gggggggggg ......... aggggggggg1ggggg",
"$$$$$jHHHHHHHHHjDHHHHHHHHHaHHHHHHHHHG.$$$$$$$$$XAHHHHHHHHHdHHHHH",
"$$$$$jHHHHHHHHHjDHHHHHHHHHaHHHHHHHHHG.$$$$$$$$$XAHHHHHHHHHdHHHHH",
"$$$$$jHHHHHHHHHjDHHHHHHHHHaHHHHHHHHHG.$$$$$$$$$XAHHHHHHHHHdHHHHH",
"$$$$$jHHHHHHHHHjDHHHHHHHHHaHHHHHHHHHG.$$$$$$$$$XAHHHHHHHHHdHHHHH",
"::::-9aaaaeaaaa9aaaaypaaaa7aaaaeeeeewO++++#::::*yaaayyaaaa7aaaae",
"HHHHHHHHHHaHHHHHHHHHbCHHHHHHHHHrqqqqqqqqqqyHHHHHHHHHMNHHHHHHHHHd",
"HHHHHHHHHHaHHHHHHHHHbCHHHHHHHHHrqqqqqqqqqqyHHHHHHHHHMNHHHHHHHHHd",
"HHHHHHHHHHaHHHHHHHHHbCHHHHHHHHHrqqqqqqqqqqyHHHHHHHHHMNHHHHHHHHHd",
"HHHHHHHHHHaHHHHHHHHHbCHHHHHHHHHrqqqqqqqqqqyHHHHHHHHHMNHHHHHHHHHd",
"mmmmmmmmmm9mmmmmmmmmajmmmmmmmmm311111111116mmmmmmmmmggmmmmmmmmm9",
"BBBBn3fffffffff21111111111<BBBBBBBBBMrBBBBBBBBBayfffffffff:11111",
"HHHHSwccccccccc08qqqqqqqqq4HHHHHHHHHGgHHHHHHHHHzjccccccccc1qqqqq",
"HHHHSwccccccccc08qqqqqqqqq4HHHHHHHHHGgHHHHHHHHHzjccccccccc1qqqqq",
"HHHHSwccccccccc08qqqqqqqqq4HHHHHHHHHGgHHHHHHHHHzjccccccccc1qqqqq",
"HHHHSwccccccccc08qqqqqqqqq4HHHHHHHHHGgHHHHHHHHHzjccccccccc1qqqqq"
};
