/* XPM */
static char *_f46b9d9de4a46f9a177f3073bb25a14R2YRAfqfgbNGNsZm[] = {
/* columns rows colors chars-per-pixel */
"64 64 187 2 ",
"   c #643E25",
".  c #67432C",
"X  c #6A472F",
"o  c #754422",
"O  c #794623",
"+  c #7E4A27",
"@  c #764728",
"#  c #784728",
"$  c #774A2D",
"%  c #7C4C2D",
"&  c #684734",
"*  c #674833",
"=  c #694A35",
"-  c #764D34",
";  c #7B4E32",
":  c #7E5134",
">  c #7B553B",
",  c #7E5940",
"<  c #844A22",
"1  c #8A4E26",
"2  c #834E2A",
"3  c #894F28",
"4  c #8D5127",
"5  c #85522D",
"6  c #8C542C",
"7  c #8E582F",
"8  c #905227",
"9  c #91562D",
"0  c #93592F",
"q  c #9A5B2E",
"w  c #845433",
"e  c #8A5632",
"r  c #8C5934",
"t  c #845739",
"y  c #86593D",
"u  c #8B5B3A",
"i  c #915730",
"p  c #945C33",
"a  c #9A5E33",
"s  c #935E3A",
"d  c #A25E2D",
"f  c #A15F31",
"g  c #9B6135",
"h  c #96623C",
"j  c #9C643B",
"k  c #9F693D",
"l  c #A4602E",
"z  c #A8642F",
"x  c #A46333",
"c  c #A96635",
"v  c #AA6836",
"b  c #A2663B",
"n  c #A8673A",
"m  c #A3693D",
"M  c #AB6C3C",
"N  c #B36735",
"B  c #B66A37",
"V  c #B96B37",
"C  c #B36D3A",
"Z  c #BB6E3A",
"A  c #AE713F",
"S  c #B3713E",
"D  c #BD723C",
"F  c #BE793F",
"G  c #C06D32",
"H  c #C37237",
"J  c #C2753C",
"K  c #C5793E",
"L  c #CA7C3F",
"P  c #855B40",
"I  c #8B5E41",
"U  c #915D40",
"Y  c #8E6142",
"T  c #966440",
"R  c #996642",
"E  c #9C6A43",
"W  c #926A4D",
"Q  c #9E6C49",
"!  c #986F52",
"~  c #A56740",
"^  c #A36C43",
"/  c #AA6E41",
"(  c #A26E4A",
")  c #B26D42",
"_  c #A67146",
"`  c #AC7242",
"'  c #A4714C",
"]  c #AA744B",
"[  c #B47443",
"{  c #BA7543",
"}  c #B57847",
"|  c #BC7A45",
" . c #B4754A",
".. c #BA7649",
"X. c #B47A4B",
"o. c #BC7B4B",
"O. c #A67656",
"+. c #AC7D5A",
"@. c #B27652",
"#. c #B47C52",
"$. c #BD7E51",
"%. c #B07E5A",
"&. c #AC7F60",
"*. c #C17641",
"=. c #C47C43",
"-. c #C97E42",
";. c #C37E4B",
":. c #BF824D",
">. c #AF805C",
",. c #B68056",
"<. c #BD8254",
"1. c #B6845C",
"2. c #BB845B",
"3. c #BF895A",
"4. c #AF8262",
"5. c #B28663",
"6. c #BB8962",
"7. c #C58146",
"8. c #CC8245",
"9. c #C3824C",
"0. c #CC854A",
"q. c #CE894D",
"w. c #D18646",
"e. c #D48946",
"r. c #D08749",
"t. c #D28B4C",
"y. c #D7904F",
"u. c #D8904F",
"i. c #C48552",
"p. c #C98652",
"a. c #C58A54",
"s. c #CC8B53",
"d. c #C2865A",
"f. c #C58C5C",
"g. c #CC8D5B",
"h. c #D28E52",
"j. c #D18F59",
"k. c #CF9056",
"l. c #CD925C",
"z. c #D59255",
"x. c #D99555",
"c. c #DC9857",
"v. c #D4935B",
"b. c #D9965B",
"n. c #D6995F",
"m. c #DB9A5D",
"M. c #C48D61",
"N. c #CC8F61",
"B. c #C69063",
"V. c #CD9263",
"C. c #C6946B",
"Z. c #CD966A",
"A. c #CE996B",
"S. c #D29562",
"D. c #D19564",
"F. c #D79962",
"G. c #D59964",
"H. c #D69A65",
"J. c #D79C67",
"K. c #DB9D64",
"L. c #D0976A",
"P. c #D29A6A",
"I. c #D49B6B",
"U. c #D19A6E",
"Y. c #DA9E6A",
"T. c #C59870",
"R. c #CC9973",
"E. c #D29B71",
"W. c #D29D72",
"Q. c #D49E72",
"!. c #E09F61",
"~. c #DDA066",
"^. c #D7A06D",
"/. c #DCA26C",
"(. c #D6A172",
"). c #DBA270",
"_. c #DDA572",
"`. c #DDA673",
"'. c #DAA375",
"]. c #DEA975",
"[. c #D7A378",
"{. c #E1A264",
"}. c #E1A56C",
"|. c #E1A771",
" X c #E2AA74",
".X c #E3AD79",
"XX c #E5B07B",
/* pixels */
"~ ..g.M.u <.;.;.r i =.;.[ ; ~ ) p.R r a.F.d.- b ;.;.( h J.v.a.u ~ o.g.<.r D.D.l.( k V.).Z.h B.).'.+.$ f.V.U.Y ' A.Q.C.y 6.[.R.+.",
"m o.g.f.u $.| ;.r i =.9.[ % / o.i.T r a.F.f.- j ;.;.] h J.v.p.r / $.g.f.r S.D.g.' j g.).Z.T B.).'.>.$ d.V.U.I Q U.U.C.t 6.(.Z.&.",
"b 9.v.B.r <.;.;.r p =.8.[ % / i.i.T r a.F.f.- j ;.9.] h J.v.p.u / $.V.f.u S.v.d.' s V.).V.T V.).'.5.$ d.V.U.y R P.U.C.t M.Q.Z.4.",
"m p.v.f.u i.;.9.r p 8.9. .% b  .;.( e a.K.f.- j ..9.] j J.S.g.h / o.S.3.u I.J.<.( h S._.Z.T B._.'.6.; d.V.U.I ( U.U.C.t 2.Q.W.5.",
"m s.n.B.r i.p.p.s p s.9./ $ j ....R e 9.n.$.- b [ 9.] h Y.J.l.h / o.J.2.u P.J.$.Q k V._.Z.h f.).).6.; 2.V.L.I ( E.E.C.w 2.(.Q.5.",
"m s.F.B.w :.9.s.h g h.;./ & U ) ) h e p.v.o.; m ..p. .h /.Y.S.h / i.J.2.s D.Y.<.Q ~ V._.S.R M.).).6.; #.N.P.u ' U.Q.C.t 2.Q.Z.+.",
"m s.F.B.w o.9.p.h j h.;./ * s M / h r s.h.o.; m | s.X.h /.Y.S.h m ;.J.2.h J. Xf.( m D._.D.R B._.).6.; @.V.U.u ' L.L.C.t 1.U.U.+.",
"M h.F.B.w ..;.s.h j h.9./   b { ..R r j.v.;.: / ;.h.X.h ].K.F.R M ;.J.1.h J.XXf.E m v._.P.R B._._.1.; #.V.U.I ' U.Z.C.w 2.Z.E.+.",
"/ z.F.B.w } =.s.h g t.8.[ % x ) ) R p v.b.p.; / ;.h.X.R ]./.J.h / ;.H.1.h ^..Xg.E k v._.I.E Z._._.1.% #.V.U.u ] U.V.C.t 2.Z.Q.+.",
"M h.n.l.w ..=.s.h j z.q.} % n ) C R r n.v.p.; j =.h. .R ]./.n.h M ;.F.2.h ^..XV.E k S._.I.R B./._.1.% X.g.U.u ] U.V.B.t 2.U.Q.O.",
"` n.n.l.w o.;.h.R g z.q.{ % n [ M k p h.v.p.: b =.0. .R ].K.v.R n ;.S.2.h ^..XS.E k v./.J.R B./. X1.% } D.Q.I ] P.S.B.w 3.L.U.O.",
"X.K.n.l.e ..=.h.R j b.t.| % M o.{ ~ p s.h.p.: n | 0.[ h /.K.n.R b ;.S.2.h J. XJ.E k v./.I.R B._..X1.% X.D.Q.P ] I.J.V.w d.I.U.+.",
"X./.n.l.r } =.h.R j x.t.o.5 [ 8.=.m p s.h.9.w n | 0.[ h /./.v.h b ;.n.<.h J. XF.( b j./.I.R B.|..X1.% ..v.U.P ] Y.Y.Z.t f.I.U.+.",
"X.K.n.l.e } =.h.R j z.t.| w } p.=.~ p h.t.0.w n *.q.[ h /./.v.h b ;.b.<.h J.|.S.( j g.Y.J.R V./..X1.% o.v.S.y ] ).Y.V.w f.I.Z.+.",
"X.K.n.l.e { =.h.E j z.t.| 5 } 0.*.k j h.t.0.w n =.q.[ h Y.K.v.h b ;.b.i.j J. XF.( b j.Y.I.R B./. X1.; o.s.f.t ] I.J.M.e f.I.U.+.",
"X.K.b.l.r } =.q.E k z.q.| 5 } 0.*.~ j h.0.0.w / =.r.[ j /.K.v.h b ;.v.i.h H.}.S.~ b v.K.J.R f./..X1.; o.a.N.t ( Y.I.f.w f.I.L.+.",
"X.n.v.l.r } =.q.E j h.7.| 5 { q.J k k h.q.p.w M =.q.[ h /.K.v.h m 9.v.f.h S./.n.~ j H.Y.J.R f./. X1.% o.g.P.y ( )._.M.w f.I.L.%.",
"} n.v.l.r { =.h.E j t.q.=.5 } t.K ~ j z.t.9.w M =.r.[ j /.K.j.h b ;.v.f.h S.K.F.~ k I./.J.h f./..X1.2 o.j.I.y ( _._.B.: f.Y.L.%.",
"[ b.v.l.r { =.t.E j t.8.| 5 } t.-./ k z.h.p.w M 7.r.} E /.K.v.h b ;.v.f.s S.}.F.~ m '.K.D.h f./..X,.% o.v.Y.y ( /._.Z.w f.P.S.+.",
"X.n.v.l.r } K t.^ j z.8.| 5 { t.-.M k z.h.9.w M -.t.} ( /.K.n.h b ;.v.f.p S./.F.~ k J.K.S.h f./. X,.5 o.S./.y ( /._.V.u M.P.V.+.",
"} m.v.l.u } K t._ k z.q.| 5 } t.=./ k h.t.9.w S 8.r.} j /.K.v.j b 9.v.g.s l.K.n.~ j v.Y.J.h f./. X,.% o.v.).y ( /. XV.r M.I.V.+.",
"} m.z.l.u } K q.' k z.q.| 5 } t.-.` k t.q.9.w n 7.r.[ j /.K.v.j m p.b.f.s l.F.n.k j j.K.J.h f./. X,.% o.D./.y ( /.].Z.r f./.V.%.",
"[ n.z.l.r o.K 8.^ j t.8.| 5 } r.-.` m t.t.;.% c =.w.[ j /.K.v.h b p.b.V.s f.F.v.k j j.Y.D.h f.Y. X,.% o.D.Y.y E /._.Z.r f.Y.V.%.",
"[ n.v.l.r } K 8.k j y.8.| 5 } t.=.` k h.t.8.2 c =.q.[ j K.K.n.j m 9.b.l.p g.b.v.~ a v.K.H.s f./. X#.w i.S./.y E Y.|.Z.r f.).V.1.",
"` n.v.l.u ..J 0.( j t.8.| 5 o.h.-.[ k h.t.[ % n -.r.[ j ~.K.n.j b ;.b.l.p s.b.v.~ g j.F.S.s f./. X,.w a.S./.y E /._.V.w f.).S.1.",
"` v.z.l.r } J r._ j t.8.| 5 o.h.-.` j h.h...; n 8.r.[ j ~.K.n.j j 9.v.l.p s.b.v.b a j.K.S.r f./. X1.w a.D._.y E _._.Z.w f./.V.1.",
"` z.z.l.u } J r._ g t.8.| 5 o.h.7.` j h.h.9.w c -.q.[ j K.K.v.j j 0.b.l.p s.b.v.k p s.F.S.e f.~.}.6.y p.j.).P R |._.P.w f./.V.1.",
"` z.z.l.u | J t._ g t.0.| 5 { t.-.` g h.h.8.5 x =.q.[ g K.n.z.j j 9.x.l.p s.b.h.j p s.n.V.: d.K./.T.W 9.g./., R }. XZ.- f.J.V.1.",
"` z.z.l.u [ J r._ p t.7.| 5 { t.8./ g h.h.0.w c -.8.S g K.F.v.j j 0.z.l.p s.n.v.j p s.v.V.> 3.K.J.1.P ;.g./.> R /. XC.= f.J.V.1.",
"` z.z.l.u { J t._ p t.8.| 5 S r.-.` j h.h.8.w c -.8.S g K.n.v.j j q.h.g.i s.b.v.s s s.b.l.X 3.K. X#.w ;.s._.> h /. XU.- f.Y.D.,.",
"` z.z.l.s | K r._ g t.-.| 5 { t.8.` j t.t.7.5 x =.8.S g K.n.v.j j 0.h.s.i s.b.v.r r s.b.l.r f.K.}.,.; | p./.R k /.|.A.- d.J.g.#.",
"` x.z.v.s | K r._ p t.7.=.5 { t.-.` g q.t.7.2 a J -.S g K.n.z.j j 0.h.s.p s.b.z.j p s.b.n.j l.K.}.,.$ { p./.R k K./.A.. i.J.g.#.",
"` b.z.v.s } K r._ p r.8.=.5 { t.K M g q.t.8.2 q D -.S g K.n.z.m g 8.t.g.p s.n.z.b a 0.z.v.h f.K.}.,.$ ..i./.R m F./.(.: 3.J.v.#.",
"/ z.z.v.s o.K t._ p q.L =.5 o.t.K ` g q.r.7.2 q Z -.S g K.n.v.m g 8.t.s.0 s.b.z.b g 0.z.v.j l.Y.|.,.$ o.p./.h b F./.(.w i.F.g.#.",
"M z.z.v.s o.J q.m p q.K =.7 o.r.K ` g 0.r.7.2 q Z =.S g K.b.z.m g 8.t.s.9 0.b.z.b a p.z.v.j M.Y.|.,.$ ..p.K.h b F./.).e i.n.p.#.",
"M v.z.v.s :.=.r.^ 0 8.K =.5 | r.K M p q.t.8.2 q V =.[ g F.b.h.m g -.h.s.7 9.b.h.n p 0.h.v.h M.Y.|.#.# { 9.K.h j F.~._.r i.S.p.#.",
"M z.h.z.s i.9.q./ 0 8.-.=.6 o.w.K M p q.t.7.2 q V =.{ p F.b.z.m g 7.t.s.6 0.b.h.m 0 0.h.v.j f.J.|.#.$ { ;.K.h j F.K./.r i.S.p.#.",
"M z.z.v.r 9.8.q./ 0 8.K =.5 { r.K A p q.t.8.3 q V -.{ p F.n.z.m g 7.t.s.9 0.b.z.m 0 q.h.v.j f.F.}.#.$ { ;.K.h j F.~./.r i.n.g.#.",
"` x.h.v.r 9.7.8.^ p w.J =.5 } r.K ` p q.t.8.5 f Z =.| g F.b.h.m g 7.t.s.9 q.b.x.m p q.t.z.j a.K.}.X.# | =.F.j g n.K.^.r i.n.p.X.",
"M x.z.v.r 9.=.=.m p 8.J K e | w.J / p q.r.q.5 x Z =.o.g F.v.h.m g 7.t.s.6 q.b.z.m p 0.t.z.j p.n.}.X.# { | n.j g v.K./.r i.n.p.X.",
"M x.z.v.r o.=.8.m i 8.K =.w [ r.J M p q.w.q.7 x Z =.;.j F.z.t.m a =.t.s.6 q.m.z.M 9 8.q.h.m i.n.{. .# | *.n.j j v.n.I.w i.v.p.X.",
"` x.z.z.e | -.w./ p 8.K =.e } r.=.` p q.w.r.r d Z =.9.g F.z.t.M a =.t.s.7 q.c.z.m 6 8.r.z.k 9.x.K.[ # | | n.j j b.F.^.e :.h.p.X.",
"` x.z.z.r o.-.8.m p 7.J =.! } r.-.[ i q.w.r.i x D =.o.p n.h.q./ g =.t.s.6 q.x.z.n 6 8.r.h.k 9.z.!.[ @ { { n.h j v.n./.e i.v.s.X.",
"` x.z.v.r :.-.8./ p 8.J =.W } 8.K A i q.w.q.9 x D =.| p F.z.t.M g -.r.s.6 7.x.z.M 7 8.w.h.b 9.b.{.} @ { { v.j j v.n./.e i.v.0.X.",
"M b.x.v.r o.-.7.` p 8.J K e [ 8.K M i q.8.r.i x V J o.p F.z.t.M g -.t.s.6 0.x.h.n 7 7.8.h.j 9.b.K.X.# [ { h.j j v.n._.r a.v.;.X.",
"` b.x.z.r } K 8.` 0 8.L K 5 S 8.J A i q.8.8.7 d V J =.p n.z.h./ g -.t.s.7 0.x.t.n 9 0.8.t.j 9.b.K.X.$ [ Z h.p j z.n./.r a.v.9.X.",
"M b.x.z.r o.K 8.` 9 8.-.J 5 [ q.K S i q.L 8.7 d Z D =.p n.t.h./ g =.t.s.6 0.c.t.m 9 8.8.q.j 9.m.K.X.# { D s.p a h.v.K.r i.v.9.X.",
"m x.x.z.r } -.-.` i r.-.J 5 [ q.J M 0 q.L q.7 d D =.=.p n.h.h./ g -.t.s.6 0.x.t.c 9 =.8.q.j 9.m.K.} # [ D q.p a h.v.J.e i.v.;.[ ",
"j z.z.z.r } K -.` i r.-.J 5 S q.J M 0 q.L 8.7 x D *.9.p v.t.h.` a K t.s.4 7.x.h.n 9 -.8.q.j 9.{.{...O S Z 0.i 0 t.v./.r 9.v.9.X.",
"p z.y.z.w [ K 8.` i r.-.D 2 C 8.H M 7 q.w.8.6 l D J 9.p v.t.h.` g -.t.0.3 =.x.t.v 9 -.8.t.m 9.m.{.o.O D D 0.0 9 q.z./.r 9.b.9.X.",
"u h.t.z.: ` L -.` 0 8.K J 2 C 8.D M 7 8.e.8.6 v J J =.p n.t.t.` g 8.r.0.3 =.x.r.v 9 -.r.h.m 9.m.{.o.O D D -.9 i h.z.Y.r 9.n.0.X.",
"r t.t.z.w [ K -.` 0 8.L J 2 C w.H M 7 q.w.8.6 v J J =.p n.r.t.` g 8.r.8.3 =.x.t.n 9 7.r.t.b 9.m.{.o.o C Z =.7 i h.z./.r :.b.0.} ",
"g t.t.z.r } K -.` 7 8.-.J 2 C r.J c 6 q.e.8.6 z H J 9.p n.r.t.` g -.r.0.< =.c.u.n 6 7.w.q.b 9.m.{.| o C Z =.7 p h.z./.r :.b.0.X.",
"g t.t.z.r ..=.-.` 5 8.7.J 2 C r.K c 3 q.e.8.6 d H H =.p v.r.t.` q K 8.7.< F x.t.c 6 =.w.q.b 9.m.}.} o C Z D 3 i h.z.K.r :.x.0.} ",
"g q.t.z.e } =.-.` 7 7.8.K 2 S r.J n 3 t.e.8.6 d G H 7.i k.w.r.` q -.r.7.< | u.r.x 3 =.r.t.b 9.m.{.[ o C Z *.6 i h.b.K.r :.x.0.[ ",
"g q.r.z.e } K 8.` i q.8.K + [ r.J n 3 q.e.8.9 l H J =.i s.8.r.` q K 8.=.< F t.r.x 4 =.r.t.j 9.m.{.[ o C D =.0 p h.b.J.r :.z.8.[ ",
"g q.t.h.r } K -.` i 8.-.K + ` 0.J c 3 t.t.w.6 v J K =.0 s.8.r.` a -.8.=.< =.z.t.x 4 7.w.h.j 9.!.{.[ o C Z =.0 p h.b.K.r :.z.8.[ ",
"g q.q.s.e [ =.-.A i 8.-.K 2 ` 0.D x 6 t.t.r.9 v J K =.0 s.-.8.` p 8.8.7.< o.z.t.x 8 K 8.y.j :.{.}.[ o C Z =.0 p t.m.K.r :.z.q.[ ",
"g q.t.s.e [ J K M 7 7.-.K 2 M 8.Z x 3 h.t.t.0 M K -.=.0 9.-.7.` p 8.r.0.4 =.t.t.x 4 K L t.b :.K.~.S o C Z =.0 p z.x.K.r :.z.q.} ",
"g q.t.h.e [ J J M r q.-.K 5 S t.H c 6 t.t.t.0 c K 8.=.i p.8.8.M a 8.r.0.6 o.r.t.x 4 =.-.t.b :.K.m.[ O D Z =.q i z.z.K.r :.z.q.} ",
"j q.h.g.e ` J J M e q.8.K 5 [ r.J c 6 q.t.e.0 c J r.=.9 s.8.8.M 0 -.t.8.6 9.h.t.x 4 =.-.t.j 9.!.{.[ o D B ;.a 9 h.z.K.r :.z.h.} ",
"j s.h.s.5 / =.J M r q.8.K 6 M 0.J c 3 q.t.w.0 v H 8.=.9 s.-.8.` 0 8.t.0.6 s.x.t.x 1 7.-.q.b 9.m.{.[ o D B =.g 7 q.v./.r :.z.h...",
"g s.h.z.w [ =.*.M r 0.8.=.5 / 9.=.M 5 0.t.r.0 n J q.o.0 s.-.w.` 0 8.t.0.3 s.x.t.x 3 =.-.q.j :.m.~.[ o D B =.a 5 t.n./.r :.h.s.o.",
"g h.h.z.e [ -.D m r 0.q.=.5 ` 9.D n 3 9.r.8.9 n *.r.=.i s.q.q.` p q.z.0.6 p.c.t.x 3 8.-.r.j :.m.{.[ o C N =.a 5 t.K./.r <.h.z.o."
};
